<?xml version="1.0" encoding="utf-8"?>
<!-- Generator: Adobe Illustrator 26.0.3, SVG Export Plug-In . SVG Version: 6.00 Build 0)  -->
<svg version="1.1" id="Camada_1" xmlns="http://www.w3.org/2000/svg" xmlns:xlink="http://www.w3.org/1999/xlink" x="0px" y="0px"
	 viewBox="0 0 1080 1056.2" style="enable-background:new 0 0 1080 1056.2;" xml:space="preserve">
<style type="text/css">
	.st0{fill:#DA9D31;}
</style>
<g>
	<path class="st0" d="M994.6,233.8c-13.2-6.2-26.5-3.6-37.5,7.4l-11.9,11.9c-20.9,20.8-42.5,42.4-63.6,63.7
		c-7.3,7.4-11.4,3.4-12.7,2c-1.7-1.7-2.6-3.4-2.5-5.1c0.1-2.2,1.7-4.6,4.7-7l8.4-6.8c18.1-14.7,36.8-29.9,54.7-45.6
		c13.6-12,28.6-26.9,36.6-47.4c4.7-12,1.7-27-6.8-34.2c-9.7-8.2-22.2-8-33.6,0.4c-14.3,10.6-28.2,22.1-41.7,33.2l-1.6,1.3
		c-6.6,5.4-13.2,11.1-19.6,16.5c-11.1,9.4-22.7,19.2-34.4,28.3c-0.4,0.3-0.9,0.7-1.3,1c-6.2,4.9-10.6,7.8-15.8,3.7
		c-0.6-0.5-1-1.4-1-2.6c-0.3-4.3,2.8-10.7,7.5-15.7c0.2-0.2,0.4-0.5,0.6-0.7c0.4-0.5,0.9-0.9,1.2-1.2c6.3-4.7,12.7-9.4,18.9-13.9
		c14.2-10.5,29-21.3,43.1-32.4c10.3-8.1,19.4-16.8,27.2-26c9.1-10.8,3.2-22.2-1.6-31.3c-5.2-9.9-13.7-10.8-21.2-11.7
		c-17.9-2-29.8,8-41.2,17.7c-8.1,6.8-16.2,14-24.1,20.9C807,176.3,788,193,767.8,207.1c-18.5,12.9-32.5,37-35.6,61.4
		c-2.5,19.5,2.2,37.3,13.3,50.4c0.4,0.9,0.1,3.6-0.3,4.3c-4.2,4.6-8.8,9-13.2,13.2c-3.7,3.6-7.5,7.3-11.2,11.1
		c-3.1,3.3-5.1,3.3-9.8,0.3c-12.7-8-24.1-14.7-35-20.3c-5.1-2.6-6.5-4.8-6.3-9.9c0.4-9.7,0.3-19.6,0.2-29.2c0-4-0.1-8-0.1-12v-37.4
		c1.3,0,2.2,0,3.2,0c3.7,0.2,7.6,0.6,11.3,0.9c8.3,0.8,16.9,1.6,25.4,0.9c22.1-1.9,37-11.6,44.1-28.9c3.3-8,6.8-17.4,8.1-26.9
		c2.9-22.6-1.2-40.9-12.7-56c-7.8-10.3-21-17.1-36.3-18.6c-14.7-1.5-29.5,2-40.5,9.5c-6.9,4.7-13.4,9.9-19.8,14.9
		c-2.1,1.6-4.2,3.3-6.3,5c-1.6-1.5-3.3-3.2-5.1-4.9c-6.9-6.6-15.4-14.9-24.8-21.9c-23.4-17.3-46.6-21.7-71-13.3
		c-21.4,7.4-34.8,23.3-47.3,39c-1.1-0.8-2.2-1.6-3.3-2.5c-4.3-3.2-8.8-6.6-13.7-9.2c-23-12.2-46.3-10.1-68.2-6
		c-41.7,7.8-63.6,28.3-68.9,64.5c-2.4,16.9,1.8,41.4,21.9,54.8c16.1,10.8,35.4,15.2,59.1,13.6c2.9-0.2,4.8,0.1,5.7,0.9
		c0.9,0.8,1.3,2.8,1.2,5.9c-0.5,21.5-0.5,41.3,0,60.6c0.1,5.7-1.7,8.5-7.4,11.9c-9.8,5.7-19,11.6-28.8,17.9
		c-3.2,2.1-6.5,4.2-9.8,6.3L144.3,149.2l-8.4,2.1v2.7c0,5.9-0.2,12-0.3,17.9c-0.3,13.5-0.7,27.5,0.8,41.2
		c2.3,21.9,6.4,42.3,12.3,60.5c11.9,37.1,31,71.4,58.3,105c24.7,30.4,56.2,63.8,102.8,80.6c0.8,0.4,2.4,2.6,2.5,3.6
		c-0.7,4.1-1.9,8.4-3,12.5c-1.5,5.6-3.1,11.4-3.8,17.3c-0.3,2.4-0.6,4.8-0.8,7.2c-1.7,14.4-3.5,29.2-1.8,43.7
		c4.7,41.3,18.9,77.2,42,106.6L160.2,817.3l44.1,56.9l12.8-11.1c6.9-6,13.5-11.7,20.1-17.4c3.8-3.3,7.6-6.6,11.5-9.9
		c11.9-10.2,24.1-20.8,36.3-31.1c10.9-9.3,22-18.6,32.8-27.7c11.4-9.6,23.2-19.5,34.7-29.3c6.3-5.3,12.6-10.8,18.7-16
		c9.5-8.2,19.3-16.7,29.1-24.8c0.9-0.8,3.9-1.1,4.8-0.7c7.6,4.1,14.9,8.6,22.6,13.4c2,1.3,4.1,2.5,6.1,3.8c0,0.1-0.1,0.2-0.1,0.3
		c-16,25.1-24.3,53.6-25.5,87c-0.8,23.7,3.6,47.8,13.3,71.8c12,30,33.9,56,61.5,73.5c22.8,14.4,47.5,21.7,72.5,21.7
		c7.6,0,15.2-0.7,22.8-2c39.6-7.1,71.2-27.2,93.9-59.7c33.6-48.1,41.3-101.1,23-157.4c-3-9.3-7.2-18.2-11.3-26.8
		c-1.4-3-2.8-6-4.2-9.1c1.2-0.7,2.4-1.4,3.7-2.2c4.5-2.7,9.2-5.4,13.8-8.2c6.9-4.2,10.2-5.9,12.5-5.6c2.6,0.4,6.1,3.5,11.8,8.8
		c16.5,15.1,33.9,29.9,50.7,44.2l0.9,0.8c11.9,10.1,24,20.2,35.7,30.1c9.7,8.1,19.7,16.4,29.4,24.7c14,11.9,28.3,24.1,42,35.8
		c6.1,5.3,12.3,10.5,18.4,15.8l2.8,2.4l2.2-3c3-3.9,5.8-7.7,8.7-11.5c6.2-8.3,12.1-16.1,18.2-23.9c14.4-18.6,14.3-20.6-3-35.8
		l-0.6-0.5c-29.2-25.6-59.9-53.1-99.8-89c-7.9-7.1-15.8-14.4-23.4-21.5c-10.9-10.1-22.2-20.6-33.6-30.5c-1.9-1.6-2.3-2.3-2.4-2.5
		c0.1-0.3,0.3-0.9,1.6-2.7c22.6-32.3,35.5-65.2,39.5-100.8c3.6-32.4,0.2-60.9-10.2-87.2c-6.5-16.3-14.5-31.5-23.1-47.6
		c-3.2-6.1-6.6-12.4-9.8-18.7l26.3-20.7c3.6,1.4,7.1,2.8,10.7,4.3c9.2,3.7,17.9,7.2,27,10.5c25.8,9.4,51.7,4.4,72.9-14
		c26.1-22.8,51.3-47.4,75.7-71.3c8.1-7.9,16.4-16,24.6-24c3-2.9,5.3-7.6,6-12.2C1011.9,246.5,1002.8,237.7,994.6,233.8z
		 M493.6,158.1c0.6,0.8,1.2,1.6,1.9,2.4l2.7,3.4l2.7-3.4c2.7-3.4,5.3-6.8,7.8-10.1c5.3-6.9,10.3-13.5,15.8-19.4
		c23.4-24.9,57.6-26.7,84.9-4.4c8.7,7,16.9,15,24.9,22.8l1.7,1.6c6.2,6,11,9.5,16.2,8.9c5.1-0.7,8.9-5.3,13-12
		c6.5-10.6,16-17.1,31-21.2c12.4-3.4,24.4-1.7,33.6,4.6c9.4,6.4,15.4,17.3,16.8,30.6c1.8,16.8,1.9,34.4-9.7,49.3
		c-9.6,12.2-22.5,17.1-43.3,16.3c-6.7-0.2-13.4-1.8-21.2-3.5c-3.9-0.9-7.9-1.8-12.3-2.6l-3.8-0.7l-0.3,3.9c-0.2,2.4-0.4,4.7-0.6,7.1
		c-0.5,5.3-1,10.7-1.1,16.1c-0.2,11.6-0.1,23.4,0,34.8c0,5.1,0.1,10.3,0.1,15.4c0,5.4,0,10.8,0,16.4l0,3.1
		c-70.8-23.7-139.2-22.1-208.7,5.1v-83.8h-3.5c-3.5,0-7,0.1-10.3,0.1c-7.4,0.2-14.3,0.3-21.2-0.4c-8-0.8-16.8-2.7-27-5.7
		c-9.8-2.9-16.9-9-21.1-18.1c-6.4-13.9-4.4-31.4,0.4-42.7c8.9-20.6,24.8-32.2,47.4-34.4c3.6-0.4,7.1-1.4,10.4-2.4
		c2.2-0.7,4.3-1.3,6.3-1.7c25-5.2,45.5,1.5,62.7,20.5C491.2,155,492.4,156.5,493.6,158.1z M902,215.5c8.6-7.7,17.6-15.7,26.7-23.1
		c5.4-4.4,13.5-6.7,20-8.6c2.4-0.7,5,0.2,7.1,2.3c2.5,2.6,3.4,6.4,2.2,9.6c-2.8,8.1-6.1,16.5-11.4,22.1
		c-18,18.8-36.7,36.1-52.6,50.5c-7.6,6.8-15.8,13.3-23.7,19.6c-4.7,3.7-9.5,7.5-14.2,11.4c-2.5,2.1-4,5.7-4.3,10.6
		c-0.4,6.3,1.4,15.4,6.3,20.5c3.9,4.1,9.2,6.4,14.8,6.6c6.1,0.1,12.1-2.3,16.9-6.9c11.4-11,22.8-22.5,33.7-33.5
		c4.5-4.5,9-9,13.4-13.5c3.6-3.6,7.2-7.2,10.8-10.8c6.3-6.3,12.7-12.7,19-19c4.6-4.6,10.6-7.3,15.9-7.2c2.2,0,5.3,0.6,7.6,3.1
		c4.4,4.8,3.6,17.2-3.3,23.9c-8.4,8-16.9,16.3-25.1,24.2c-21.1,20.4-42.9,41.6-65.2,61.3c-25.4,22.6-51.1,24.2-85.9,5.4
		c-1.2-0.6-2.3-1.2-3.3-1.8c-15.1-8.2-17.1-8-31.3,3c-5.5,4.3-11.1,8.8-16.9,13.6c-2,1.7-4.2,3.4-6.4,5.2l-20.9-25.1l35.1-34
		l-1.2-2.3c-2.2-4.3-4.3-8.4-6.4-12.3c-4.2-8-8.3-15.5-11.2-23.1c-7.6-19.8,8.4-51.2,22.9-62.8c17.9-14.3,35.7-29.2,53-43.6
		c6.8-5.7,13.6-11.3,20.3-16.9c3.1-2.5,6.1-5.2,9.1-7.7c5.8-5,11.8-10.1,17.9-14.7c5.9-4.4,14.3-5.5,20.8-2.8
		c2.6,1.1,7.1,3.6,7.9,9.1c0.8,4.9-2.2,12.9-5.8,16c-8.8,7.4-18.4,14.2-27.6,20.8c-6.6,4.7-13.5,9.6-20.1,14.7
		c-11.8,9.1-24,19.5-38.5,32.5c-9.9,8.9-8.9,21.4-6.8,31.3c0.9,4.4,4.1,8.1,8.8,10.1c6,2.6,13.3,1.9,19-1.6
		c16.2-10.1,31.4-20.9,45.3-32.2C883.9,231.7,893.1,223.4,902,215.5z M211.2,848.3c-2.4,2.6-3.6,2.8-3.9,2.8c-0.6,0-1.8-0.7-4.1-3.7
		c-5.2-6.9-10.5-13.9-16-21.2l-5.4-7.1l171.1-154.9l35,32.4c-2.7,2.4-5.4,4.8-8.1,7.2c-8.2,7.3-16.8,14.9-25.3,22.2
		c-12.3,10.5-24.9,21.1-37.1,31.3c-5.3,4.5-10.7,8.9-16,13.4c-6.3,5.3-12.5,10.5-18.8,15.8c-15.8,13.3-32.2,27-48.2,40.6l-2.9,2.5
		C224.6,835.5,217.4,841.5,211.2,848.3z M426.7,776.6c0.6-2.7,1.7-5.4,2.6-8l61.4,32.3l-14.5,35c-3.7-2.9-7.3-5.9-10.8-8.7
		c-11.1-9-21.7-17.5-32.9-25.5C423.2,795.1,424.2,787.5,426.7,776.6z M552,751.3v47.4l-40.8-7.3c1.3-3.1,2.6-6.1,3.8-9.1
		c4.1-9.7,7.9-18.9,11.6-28.1c2.3-5.6,3-6.4,7.8-4.5c4.5,1.8,9.6,1.7,14.5,1.6C549.9,751.3,551,751.3,552,751.3z M625.6,782.1
		c0,0.9-0.9,3.2-1.6,3.9c-18.6,7.2-37,13.6-57.2,11.8v-46.3l45.1-5.5c0.8,2.2,1.7,4.4,2.6,6.6C618.3,762.1,622.2,772,625.6,782.1z
		 M543.6,812.3c3,0.6,6.1,1.3,9.2,1.9c0,2.8,0,5.5,0,8.3c0,12.2,0.1,24.9-0.2,37.4c-0.2,0.5-0.9,1.6-1.5,2.2
		c-19.4-3.3-41.5-8-61.1-20c1-2.3,1.9-4.6,2.9-6.9c4-9.8,7.9-19,12.1-28.2c0.5-0.7,2.7-1.8,3.5-1.7
		C520,807.4,531.4,809.8,543.6,812.3z M642.8,838.3c-23.4,14.1-46.1,22.1-69.6,24.5c-3,0.3-5.1,0-6-0.8c-0.9-0.8-1.3-2.8-1.2-5.6
		c0.4-10.8,0.3-21.4,0.2-31.7c0-3.1-0.1-6.2-0.1-9.2l66.3-14.4c0.6,1.7,1.3,3.4,1.9,5.2c3.3,8.9,7,19,10.3,29
		C644.7,836.2,643.5,837.9,642.8,838.3z M512.7,749l-15.9,38.3l-63-33.5l12.6-23.6L512.7,749z M687.2,798.3
		c-8,8.1-16.1,16.1-24.6,24.5c-1.4,1.4-2.8,2.8-4.3,4.2c-0.3-0.9-0.7-1.9-1-2.8c-1.9-5.2-3.5-9.7-5.2-14.2
		c-1.7-4.6-3.5-9.1-5.2-13.5c-0.4-1.1-0.9-2.2-1.3-3.3l36.9-26.7c0.2,1.1,0.5,2.2,0.7,3.3c2,8.9,3.8,17.3,5.5,26
		C688.6,796.2,688,797.5,687.2,798.3z M675.6,749.5c-0.7,4.1-6.9,9-17.3,17c-4.4,3.4-9.4,6.3-14.6,9.3c-1.3,0.8-2.7,1.5-4,2.3
		l-12.6-35.6l38.4-12.9C672.5,739.9,676.3,745.6,675.6,749.5z M658,716.1c-37.6,16.1-78.3,22.3-124.5,18.9
		c-48.2-3.5-92.7-20-132.1-49.1c-35-25.8-59.4-57.7-72.4-94.7c-6.1-17.2-8.8-36.1-10.9-53.8c-4.6-39.1,5.8-77.8,31.8-118.5
		c16.1-25.3,38.9-46.7,69.5-65.7c28.3-17.5,59.7-29,93.2-34.1c10-1.5,20.4-2,30.4-2.5c4.6-0.2,9.4-0.5,14.1-0.8
		c40.2-1.9,79.7,7.5,120.8,28.9c54.9,28.6,91.3,70,108.2,122.9c19.4,60.9,9.8,118.8-28.7,171.9C733.3,672.8,700.8,697.8,658,716.1z
		 M312.8,444c-17.3-6.4-33.9-16.5-52.5-31.8c-32.7-27.1-59.5-61.9-81.7-106.2c-22.3-44.5-31.6-87.4-28.5-131.1L373.8,368
		c-24.2,21.9-42.3,46.3-55.2,74.6C317.4,445,317.1,445.6,312.8,444z M421.8,812c0.8,0.7,1.6,1.3,2.3,2c5.4,4.5,10.4,8.7,15.4,12.9
		c31.1,26.5,66.2,43,104.5,49.1c36.4,5.8,71-2.2,103.1-23.7c11.3-7.6,21.6-16.2,32.6-25.2c3.1-2.5,6.2-5.1,9.4-7.7
		c-0.9,54.4-23.7,96.2-67.9,124.5c-41.9,26.8-86.5,27-128.9,0.7C447.8,916.8,424.7,873.4,421.8,812z M723.8,697.1l35.3-32.3
		l164.7,149l-24.6,32.6L723.8,697.1z"/>
	<path class="st0" d="M454.7,512c-43.2-1.9-75.5,33-75.4,73.1c0,41.9,35.2,73.4,73.3,73.9c44.8,0.6,77-34.4,77.6-74.4
		C530.9,547.4,494.9,508.3,454.7,512z"/>
	<path class="st0" d="M658.2,512c-43.2-2.4-76,32.8-75.8,73.7c0.2,40.9,34.2,72.5,73,73.3c42.7,1,74.8-34.5,76.4-71.9
		C733.6,544.2,692.6,508.3,658.2,512z"/>
	<path class="st0" d="M527.6,504.9c-2.4-1.9-5.2-3.8-7.2-4.9c-9.6-5.2-19.5-10.4-29.1-15.4c-18.9-10-38.5-20.2-57.1-31.4
		c-9.1-5.5-21.4-14.3-23.1-28c-1.6-13.6-1.3-25.7,1.1-36c3.8-16.6,10.4-21.2,27.2-18.9c9.7,1.3,19.7,5.7,26.1,11.3
		c5.6,4.9,10.3,14,11.9,23c0.3,1.5-0.5,3.7-2.3,6.2c-4.1,5.7-12.6,11.6-17.8,12.4c-8.9,1.3-12.4-4.6-16.6-11.6
		c-0.3-0.5-0.6-1.1-1-1.6c-0.6-1-1.1-2.1-2.1-4.1c-0.6-1.3-1.3-2.8-2.4-4.9l-2.5-5.1l-2.1,5.3c-0.7,1.6-1.4,3.1-2,4.3
		c-1.3,2.7-2.4,4.8-2.2,7.3c0.7,8.5,16.9,23.7,25.5,24c12,0.4,22.8-5.1,31.2-16c7.4-9.5,8.7-20.4,3.6-31.6
		c-7.5-16.4-20.3-26-41.5-31c-14.8-3.5-26.1-0.8-35.5,8.4c-9.8,9.6-15.1,26.1-14.3,44c0.9,19,8.4,35.9,19.9,45.3
		c30.6,24.8,65.8,40.7,99.8,56.1c0.6,0.3,1.5,1,2.4,1.6c2,1.5,4.4,3.3,7.1,3.3c0.4,0,0.9,0,1.4-0.2c2.2-0.5,4-2.1,5.4-5
		C532.9,509.4,530.7,507.4,527.6,504.9z"/>
	<path class="st0" d="M559.2,658.9c-6.8,0.1-15.4,9.5-15.6,17.1c-0.3,10.3,7.5,19.8,16.2,19.6c8.4-0.1,15.1-8,15.3-18.1
		C575.3,667.8,567.5,658.7,559.2,658.9z"/>
</g>
</svg>
