<?xml version="1.0" encoding="utf-8"?>
<!-- Generator: Adobe Illustrator 27.2.0, SVG Export Plug-In . SVG Version: 6.00 Build 0)  -->
<svg version="1.1" id="Camada_1" xmlns="http://www.w3.org/2000/svg" xmlns:xlink="http://www.w3.org/1999/xlink" x="0px" y="0px"
	 viewBox="0 0 211 209" style="enable-background:new 0 0 211 209;" xml:space="preserve">
<style type="text/css">
	.st0{fill:#FFFFFF;}
</style>
<g>
	<path class="st0" d="M113.57,119.3c14,13.13,26.98,25.29,39.95,37.46c7,6.57,14.06,13.07,20.96,19.74
		c6.46,6.24,7.27,12.56,2.5,17.29c-4.85,4.8-11.28,4.2-17.45-1.93c-17.84-17.72-35.59-35.53-53.38-53.29
		c-1.6-1.6-3.29-3.12-5.43-5.14c-1.98,1.86-3.84,3.45-5.53,5.2c-16.38,16.91-32.69,33.89-49.15,50.73
		c-2.51,2.57-5.44,5.83-8.59,6.38c-3.72,0.64-9.08-0.11-11.51-2.51c-2.12-2.1-2.14-7.55-1.27-11.08c0.73-2.97,3.82-5.56,6.29-7.86
		c22.41-20.88,44.75-41.84,67.46-62.38c7.94-7.18,11.85-15.83,11.38-26.04c-0.46-10.13,3.32-17.21,10.93-23.65
		C138,47.58,154.7,32.3,171.64,17.29c1.2-1.06,2.31-2.66,3.69-2.97c2.53-0.57,5.24-0.36,7.88-0.48c-0.64,2.35-0.54,5.42-2.03,6.93
		c-16.95,17.31-34.14,34.39-51.26,51.53c-1.29,1.29-3.1,2.43-3.66,4c-0.67,1.86-0.24,4.1-0.29,6.18c2.06-0.08,4.34,0.37,6.12-0.37
		c1.78-0.74,3.1-2.63,4.55-4.08c16.33-16.32,32.65-32.66,48.98-48.97c1.29-1.29,2.53-3.09,4.09-3.52c1.9-0.51,4.85-0.53,5.99,0.6
		c1.11,1.1,1.13,4.14,0.5,5.94c-0.62,1.77-2.6,3.1-4.05,4.55c-16.63,16.66-33.29,33.3-49.91,49.98c-1.28,1.28-2.87,2.58-3.43,4.17
		c-0.51,1.44-0.38,3.89,0.54,4.81c0.95,0.95,3.51,1.24,4.83,0.64c1.99-0.9,3.6-2.74,5.21-4.34c16.66-16.64,33.28-33.31,49.92-49.96
		c0.97-0.97,1.81-2.36,2.98-2.77c1.72-0.6,4.34-1.3,5.36-0.46c1.13,0.93,1.57,3.74,1.08,5.35c-0.63,2.06-2.35,3.86-3.85,5.56
		c-16.03,18.16-32.2,36.21-48.13,54.46c-4.93,5.65-10.86,7.89-18.18,7.73C130.04,111.59,121.91,113.11,113.57,119.3z"/>
	<path class="st0" d="M81.04,115.66c-3.86-4.64-7.06-9.12-10.88-12.97C49.71,82.11,29.1,61.68,8.57,41.19
		c-6.12-6.11-5.95-7.71,1.29-12.2c9.51-5.9,19.49-5.85,29.59-1.86c17.13,6.76,29.7,19.43,41.43,32.93c6.43,7.4,12.09,15.47,18,23.31
		c4.21,5.58,3.63,11.45-0.75,16.32C93.45,104.9,87.9,109.33,81.04,115.66z"/>
</g>
</svg>
